<svg xmlns="http://www.w3.org/2000/svg" viewBox="0 0 75 75" width="24" height="24">
  <path d="M8.3 60.9h11.3V37.5L3 24.2V55.6c0 2.9 2.4 5.3 5.3 5.3z" fill="#4285f4"/>
  <path d="M55.4 60.9h11.3c2.9 0 5.3-2.4 5.3-5.3V24.2L55.4 37.5z" fill="#34a853"/>
  <path d="M55.4 19.4v18.1L72 24.2v-7.5c0-6.5-7.4-10.2-12.6-6.3z" fill="#fbbc04"/>
  <path d="M19.6 37.5V19.4l17.9 13.4 17.9-13.4v18.1L37.5 50.9z" fill="#ea4335"/>
  <path d="M3 16.7v7.5l16.6 13.3V19.4l-4-3c-5.2-3.9-12.6-.2-12.6 6.3z" fill="#c5221f"/>
</svg>
