<svg width="87" height="24" viewBox="0 0 87 24" fill="none" xmlns="http://www.w3.org/2000/svg">
<path d="M8.05486 6.5C8.09333 6.22386 8.35088 6 8.63012 6H19.5571C20.1017 6 20.2493 6.6774 19.7785 7.01597L13.466 11.5555C13.1479 11.7842 13.0878 12.2158 13.3421 12.4445L18.3899 16.984C18.7664 17.3226 18.4301 18 17.8855 18H6.95847C6.67923 18 6.48405 17.7761 6.52252 17.5L8.05486 6.5Z" fill="white"/>
<path fill-rule="evenodd" clip-rule="evenodd" d="M5.95752 0C4.29911 0 2.76759 1.34315 2.53679 3L0.0293139 21C-0.201492 22.6569 0.955811 24 2.61422 24H20.6311C22.2896 24 23.8211 22.6569 24.0519 21L26.5594 3C26.7902 1.34315 25.6329 0 23.9744 0H5.95752ZM7.04102 3C6.21181 3 5.44605 3.67157 5.33065 4.5L3.24109 19.5C3.12569 20.3284 3.70434 21 4.53355 21H19.5476C20.3769 21 21.1426 20.3284 21.258 19.5L23.3476 4.5C23.463 3.67157 22.8843 3 22.0551 3H7.04102Z" fill="white"/>
<path d="M75.4405 17.2038L81.8695 11.0293H76.6719L77.0852 8.06202H87L86.6414 10.6366L80.2251 16.8766H86.0123L85.599 19.8438H75.0727L75.4405 17.2038Z" fill="white"/>
<path d="M64.2805 17.2038L70.7095 11.0293H65.5119L65.9252 8.06202H75.84L75.4814 10.6366L69.0651 16.8766H74.8523L74.439 19.8438H63.9127L64.2805 17.2038Z" fill="white"/>
<path d="M55.3321 20.0616C54.3712 20.0616 53.5602 19.8217 52.8991 19.3417C52.2546 18.8471 51.7996 18.1416 51.5342 17.2253C51.2687 16.3089 51.2241 15.218 51.4004 13.9526C51.5767 12.6871 51.9252 11.5962 52.446 10.6798C52.9667 9.76347 53.6172 9.06528 54.3975 8.58528C55.1943 8.09074 56.0732 7.84346 57.0341 7.84346C57.864 7.84346 58.5656 8.03256 59.139 8.41074C59.7269 8.78892 60.0938 9.29074 60.2396 9.91619H60.4361L60.8255 8.06165H64.3415L62.7003 19.8435H59.1842L59.3116 17.9889H59.115C58.7949 18.6144 58.2883 19.1162 57.595 19.4944C56.9162 19.8726 56.1619 20.0616 55.3321 20.0616ZM57.0994 17.0944C57.5944 17.0944 58.0246 16.9853 58.3898 16.7671C58.7696 16.5489 59.0743 16.2435 59.3037 15.8507C59.5331 15.458 59.6833 15.0071 59.7542 14.498L59.9061 13.4071C59.9791 12.8835 59.9483 12.4253 59.8137 12.0326C59.6937 11.6398 59.4805 11.3416 59.174 11.138C58.8695 10.9198 58.4989 10.8107 58.0621 10.8107C57.5089 10.8107 57.0247 10.9416 56.6097 11.2035C56.2113 11.4507 55.8923 11.8071 55.6528 12.2726C55.4132 12.738 55.2479 13.298 55.1567 13.9526C55.0675 14.5926 55.0706 15.1453 55.1659 15.6107C55.2758 16.0762 55.4872 16.4398 55.8001 16.7017C56.1131 16.9635 56.5462 17.0944 57.0994 17.0944Z" fill="white"/>
<path d="M47.7703 3.93818H51.4611L49.2454 19.8436H45.5547L47.7703 3.93818Z" fill="white"/>
<path d="M39.4417 20.0618C38.5973 20.0618 37.8811 19.8727 37.2932 19.4945C36.7198 19.1164 36.3675 18.6145 36.2362 17.9891H36.0397L35.6285 19.8436H32.1125L34.3281 3.93818H38.0189L37.1861 9.91636H37.3608C37.6663 9.29091 38.1585 8.78909 38.8372 8.41091C39.5305 8.03273 40.2993 7.84364 41.1437 7.84364C42.0901 7.84364 42.8855 8.09091 43.53 8.58545C44.1911 9.06545 44.6544 9.76364 44.9198 10.68C45.1853 11.5964 45.2298 12.6873 45.0536 13.9527C44.8773 15.2182 44.5288 16.3091 44.008 17.2255C43.4873 18.1418 42.8285 18.8473 42.0316 19.3418C41.2514 19.8218 40.388 20.0618 39.4417 20.0618ZM38.3919 17.0945C38.9451 17.0945 39.4209 16.9709 39.8194 16.7236C40.2344 16.4618 40.5617 16.0982 40.8012 15.6327C41.0408 15.1673 41.2061 14.6073 41.2973 13.9527C41.3885 13.2982 41.3791 12.7382 41.2693 12.2727C41.174 11.8073 40.9688 11.4509 40.6538 11.2036C40.3409 10.9418 39.9151 10.8109 39.3764 10.8109C38.8668 10.8109 38.4221 10.92 38.0423 11.1382C37.6771 11.3564 37.3797 11.6618 37.1503 12.0545C36.9209 12.4473 36.7707 12.8982 36.6998 13.4073L36.5478 14.4982C36.4749 15.0218 36.4984 15.48 36.6184 15.8727C36.753 16.2655 36.9725 16.5709 37.277 16.7891C37.5835 16.9927 37.9551 17.0945 38.3919 17.0945Z" fill="white"/>
</svg>
