<svg width="93" height="93" viewBox="0 0 93 93" fill="none" xmlns="http://www.w3.org/2000/svg">
<path d="M23.0936 25.0181C23.0936 23.9552 23.9641 23.0936 25.0378 23.0936H67.0557C69.1497 23.0936 70.0801 25.7009 68.4511 27.004L46.6091 44.4762C45.5086 45.3566 45.5086 47.0179 46.6091 47.8982L68.4511 65.3705C70.0801 66.6736 69.1497 69.2809 67.0557 69.2809H25.0378C23.9641 69.2809 23.0936 68.4193 23.0936 67.3564V25.0181Z" fill="white"/>
<path fill-rule="evenodd" clip-rule="evenodd" d="M11.5468 0C5.16968 0 0 5.16968 0 11.5468V80.8277C0 87.2048 5.16968 92.3745 11.5468 92.3745H80.8277C87.2048 92.3745 92.3745 87.2048 92.3745 80.8277V11.5468C92.3745 5.16968 87.2048 0 80.8277 0H11.5468ZM17.3202 11.5468C14.1317 11.5468 11.5468 14.1317 11.5468 17.3202V75.0543C11.5468 78.2428 14.1317 80.8277 17.3202 80.8277H75.0543C78.2428 80.8277 80.8277 78.2428 80.8277 75.0543V17.3202C80.8277 14.1317 78.2428 11.5468 75.0543 11.5468H17.3202Z" fill="white"/>
</svg>
