<svg width="16" height="16" viewBox="0 0 64 64" fill="none" xmlns="http://www.w3.org/2000/svg">
<path d="M16 17.3333C16 16.597 16.6031 16 17.347 16H46.4584C47.9092 16 48.5538 17.8064 47.4252 18.7092L32.2923 30.8146C31.5298 31.4245 31.5298 32.5755 32.2923 33.1854L47.4252 45.2908C48.5538 46.1936 47.9092 48 46.4584 48H17.347C16.6031 48 16 47.403 16 46.6667V17.3333Z" fill="black"/>
<path fill-rule="evenodd" clip-rule="evenodd" d="M8.00001 0C3.58173 0 0 3.58172 0 8V56C0 60.4183 3.58173 64 8.00001 64H56C60.4183 64 64.0001 60.4183 64.0001 56V8C64.0001 3.58172 60.4183 0 56 0H8.00001ZM12 8C9.79087 8 8.00001 9.79086 8.00001 12V52C8.00001 54.2091 9.79087 56 12 56H52C54.2092 56 56 54.2091 56 52V12C56 9.79086 54.2092 8 52 8H12Z" fill="black"/>
</svg>
