<svg width="152" height="40" viewBox="0 0 152 40" fill="none" xmlns="http://www.w3.org/2000/svg">
<path d="M131.926 29.6824L142.552 18.1939H132.64L132.643 12.6729H151.55L151.548 17.4632L140.964 29.0734H152L151.997 34.5944H131.924L131.926 29.6824Z" fill="white"/>
<path d="M110.645 29.6824L121.27 18.1939H111.358L111.361 12.6729H130.268L130.266 17.4632L119.682 29.0734H130.718L130.715 34.5944H110.642L110.645 29.6824Z" fill="white"/>
<path d="M94.3369 34.9997C92.5044 34.9997 90.8944 34.5531 89.5066 33.66C88.1466 32.7399 87.0923 31.4273 86.3435 29.7223C85.5947 28.0173 85.2209 25.9875 85.222 23.633C85.2232 21.2784 85.599 19.2487 86.3495 17.5437C87.0999 15.8387 88.1556 14.5396 89.5165 13.6465C90.9051 12.7263 92.5156 12.2663 94.3481 12.2663C95.9306 12.2663 97.3186 12.6181 98.5121 13.3217C99.7334 14.0254 100.566 14.9591 101.009 16.1228H101.384L101.636 12.6722H108.341L108.33 34.5937H101.625L101.377 31.1431H101.002C100.557 32.3069 99.7239 33.2405 98.5019 33.9442C97.3078 34.6479 95.9194 34.9997 94.3369 34.9997ZM96.9216 29.4787C97.8656 29.4787 98.6569 29.2757 99.2957 28.8698C99.9622 28.4638 100.462 27.8955 100.796 27.1648C101.129 26.4341 101.296 25.5951 101.297 24.6479L101.298 22.6181C101.298 21.6438 101.118 20.7913 100.758 20.0606C100.425 19.3299 99.9393 18.7751 99.3009 18.3962C98.6625 17.9902 97.9269 17.7872 97.094 17.7872C96.0389 17.7872 95.1504 18.0308 94.4283 18.518C93.7339 18.978 93.22 19.6411 92.8864 20.5071C92.5528 21.3732 92.3857 22.4151 92.3851 23.633C92.3845 24.8238 92.5367 25.8522 92.8417 26.7182C93.1744 27.5843 93.6738 28.2608 94.3399 28.748C95.006 29.2351 95.8666 29.4787 96.9216 29.4787Z" fill="white"/>
<path d="M75.6485 5H82.6866L82.672 34.594H75.6339L75.6485 5Z" fill="white"/>
<path d="M64.0344 35C62.4241 35 61.0083 34.6482 59.7871 33.9445C58.5936 33.2409 57.7889 32.3072 57.373 31.1434H56.9982L56.705 34.594H50L50.0146 5H57.0527L57.0472 16.1231H57.3804C57.7974 14.9594 58.6031 14.0257 59.7972 13.3221C61.0192 12.6184 62.4353 12.2666 64.0456 12.2666C65.8503 12.2666 67.4326 12.7267 68.7926 13.6468C70.1803 14.5399 71.2486 15.839 71.9974 17.544C72.7462 19.249 73.12 21.2788 73.1188 23.6333C73.1176 25.9878 72.7418 28.0176 71.9914 29.7226C71.2409 31.4276 70.1713 32.7402 68.7827 33.6603C67.4218 34.5534 65.8391 35 64.0344 35ZM61.2469 29.479C62.3019 29.479 63.1766 29.249 63.8709 28.7889C64.593 28.3018 65.1209 27.6252 65.4544 26.7591C65.788 25.8931 65.9551 24.8512 65.9557 23.6333C65.9563 22.4154 65.7903 21.3735 65.4575 20.5074C65.1526 19.6414 64.667 18.9783 64.0009 18.5183C63.3348 18.0311 62.4881 17.7876 61.4609 17.7876C60.4891 17.7876 59.67 17.9905 59.0035 18.3965C58.3647 18.8024 57.8786 19.3708 57.545 20.1015C57.2115 20.8322 57.0445 21.6712 57.044 22.6184L57.043 24.6482C57.0426 25.6225 57.2087 26.475 57.5415 27.2057C57.9021 27.9364 58.4016 28.5047 59.0399 28.9107C59.6783 29.2896 60.414 29.479 61.2469 29.479Z" fill="white"/>
<path d="M10.008 10.8333C10.0082 10.3731 10.3852 10 10.85 10H29.038C29.9444 10 30.3466 11.129 29.6412 11.6933L20.183 19.2591C19.7064 19.6403 19.7061 20.3597 20.1822 20.7409L29.6332 28.3067C30.3381 28.871 29.9348 30 29.0284 30H10.8404C10.3756 30 9.99898 29.6269 9.9992 29.1667L10.008 10.8333Z" fill="white"/>
<path fill-rule="evenodd" clip-rule="evenodd" d="M5.01502 0C2.25459 0 0.0157421 2.23858 0.0144152 5L5.901e-07 35C-0.00132634 37.7614 2.23537 40 4.99579 40H34.985C37.7454 40 39.9843 37.7614 39.9856 35L40 5C40.0013 2.23858 37.7646 0 35.0042 0H5.01502ZM7.51171 5C6.1315 5 5.01208 6.11929 5.01141 7.5L4.9994 32.5C4.99874 33.8807 6.11709 35 7.4973 35H32.4883C33.8685 35 34.9879 33.8807 34.9886 32.5L35.0006 7.5C35.0013 6.11929 33.8829 5 32.5027 5H7.51171Z" fill="white"/>
</svg>
